<svg width="306" height="306" viewBox="0 0 306 306" fill="none" xmlns="http://www.w3.org/2000/svg">
<path d="M93.3592 68.1465C76.4094 71.4175 60.1534 80.1403 48.0605 92.4314C6.72664 134.36 18.1257 204.241 70.4621 230.607C89.89 240.42 110.606 242.502 132.512 237.05C141.83 234.671 157.293 226.444 165.52 219.506C178.703 208.305 189.012 192.247 193.472 175.595C196.446 164.89 196.644 143.182 193.968 133.171C188.715 113.346 178.604 97.6849 163.24 85.4928C152.039 76.671 141.235 71.6158 126.664 68.543C119.329 66.957 100.496 66.7588 93.3592 68.1465ZM132.314 83.3122C143.911 87.277 153.229 93.0261 161.654 101.65C176.919 117.212 184.452 136.64 183.065 157.257C182.272 168.557 180.388 175.793 175.036 186.597C165.619 205.827 148.471 219.308 125.97 225.255C118.536 227.237 100.893 227.138 92.4671 225.156C68.2814 219.308 47.8623 200.375 39.6351 176.289C36.6615 167.467 36.3641 165.583 36.3641 154.283C36.265 139.514 37.7518 133.071 44.1947 119.987C53.6113 100.857 72.2463 86.2858 93.7557 81.3297C97.6215 80.4376 103.965 80.1403 112.093 80.3385C122.303 80.6359 125.871 81.1315 132.314 83.3122Z" fill="white"/>
<path d="M178.406 68.5429C174.837 69.3359 170.179 70.6245 168.097 71.3183L164.33 72.6069L169.287 76.2744C172.062 78.2569 177.117 82.9156 180.487 86.5831C211.81 119.987 215.874 169.35 190.499 207.809C186.137 214.45 173.945 227.336 168.494 231.103C163.736 234.473 163.934 234.671 176.225 237.645C188.318 240.619 204.475 240.619 216.667 237.645C245.61 230.706 269.003 208.999 278.618 180.253C281.592 171.729 281.988 169.152 282.385 156.761C282.682 144.966 282.484 141.596 280.7 134.063C273.265 102.938 250.368 78.7525 219.938 69.9306C210.323 67.1552 188.021 66.3622 178.406 68.5429ZM213.792 81.9244C239.168 88.3673 258.199 106.209 266.723 131.485C270.094 141.298 270.589 160.132 267.913 170.738C261.272 197.203 240.753 218.019 214.784 224.66C207.944 226.345 193.373 227.435 193.373 226.246C193.373 225.949 195.752 222.578 198.726 218.713C222.812 186.597 226.777 140.803 208.638 104.425C204.574 96.3962 198.329 86.7813 194.563 82.6182L191.985 79.9419H199.023C202.79 79.9419 209.431 80.834 213.792 81.9244Z" fill="white"/>
</svg>
